<?xml version="1.0" standalone="no"?><!DOCTYPE svg PUBLIC "-//W3C//DTD SVG 1.1//EN" "http://www.w3.org/Graphics/SVG/1.1/DTD/svg11.dtd"><svg class="icon" height="512" viewBox="0 0 1024 1024" version="1.1" xmlns="http://www.w3.org/2000/svg"><path d="M532.753161 55.766095c-195.577351 0-354.713744 159.136394-354.713744 354.712721 0 188.799994 317.854255 524.037151 331.364967 538.189476 6.090718 6.417153 14.540158 9.999748 23.347754 9.999748l0.708128 0c9.058306 0 17.60496-4.229325 23.568788-11.030218l110.060675-126.080533c146.234549-179.130773 220.371036-317.438792 220.371036-411.078473C887.461789 214.903511 728.325395 55.766095 532.753161 55.766095L532.753161 55.766095zM532.753161 571.711963c-89.063455 0-161.232125-72.167646-161.232125-161.232125s72.167646-161.232125 161.232125-161.232125c89.064478 0 161.232125 72.167646 161.232125 161.232125S621.81764 571.711963 532.753161 571.711963L532.753161 571.711963zM532.753161 571.711963" fill="#d81e06" /></svg>